# xmcd
#
# Track frame offsets: 
#        150
#        16512
#        31319
#        43511
#        64489
#        85489
#        101449
#        123523
#        141072
#        160129
#        176103
#        194207
#
# Disc length: 2840 seconds
#
# Revision: 0
# Processed by: cddbd v1.5.2PL0 Copyright (c) Steve Scherf et al.
# Submitted via: ExactAudioCopyFreeDBPlugin 1.0
#
DISCID=a40b160c
DTITLE=Wille and the Bandits - New Breed
DYEAR=2010
DGENRE=Blues
TTITLE0=Keep Your Head Up
TTITLE1=New Breed
TTITLE2=Galloping Horses
TTITLE3=Jack the Lad
TTITLE4=I Can Change
TTITLE5=Country Girl
TTITLE6=Otherside
TTITLE7=Time
TTITLE8=Not On My Own
TTITLE9=Anything You Want To Be
TTITLE10=Money For Nothing
TTITLE11=Once Again
EXTD=
EXTT0=
EXTT1=
EXTT2=
EXTT3=
EXTT4=
EXTT5=
EXTT6=
EXTT7=
EXTT8=
EXTT9=
EXTT10=
EXTT11=
PLAYORDER=
